HIERARCHY
ROOT ui
{
	 OFFSET 0 0 0
	 CHANNELS 3 XPosition YPosition Z Position
	 EndSite
	 {
	 OFFSET 0 -1 0
	 }
}
ROOT li
{
	 OFFSET 0 0 0
	 CHANNELS 3 XPosition YPosition Z Position
	 EndSite
	 {
	 OFFSET 0 -1 0
	 }
}
ROOT ul
{
	 OFFSET 0 0 0
	 CHANNELS 3 XPosition YPosition Z Position
	 EndSite
	 {
	 OFFSET 0 -1 0
	 }
}
ROOT ll
{
	 OFFSET 0 0 0
	 CHANNELS 3 XPosition YPosition Z Position
	 EndSite
	 {
	 OFFSET 0 -1 0
	 }
}
ROOT tt
{
	 OFFSET 0 0 0
	 CHANNELS 3 XPosition YPosition Z Position
	 EndSite
	 {
	 OFFSET 0 -1 0
	 }
}
ROOT tb
{
	 OFFSET 0 0 0
	 CHANNELS 3 XPosition YPosition Z Position
	 EndSite
	 {
	 OFFSET 0 -1 0
	 }
}
ROOT td
{
	 OFFSET 0 0 0
	 CHANNELS 3 XPosition YPosition Z Position
	 EndSite
	 {
	 OFFSET 0 -1 0
	 }
}
ROOT v
{
	 OFFSET 0 0 0
	 CHANNELS 3 XPosition YPosition Z Position
	 EndSite
	 {
	 OFFSET 0 -1 0
	 }
}
ROOT bn
{
	 OFFSET 0 0 0
	 CHANNELS 3 XPosition YPosition Z Position
	 EndSite
	 {
	 OFFSET 0 -1 0
	 }
}
MOTION
Frames: 13
Frame Time: 0.002
-0.0026141650676727293	2.535659968852997E-4	0		0.5399797973632813	-2.362244384765625	0		-1.0974952392578126	0.3201290283203125	0		-0.5901765747070312	-2.574045166015625	0		1.7577698974609375	-0.2722204284667969	0		3.367401123046875	-0.41819293212890624	0		4.54445263671875	-0.41886767578125	0		5.82128076171875	0.15692976379394533	0		-0.41763638305664064	5.84765771484375	0		
-0.0025682730674743653	5.1089998334646226E-5	0		0.5399166870117188	-2.362471923828125	0		-1.10843408203125	0.320086669921875	0		-0.594299072265625	-2.579180419921875	0		1.7198150634765625	-0.27112548828125	0		3.360328369140625	-0.4284806213378906	0		4.54447900390625	-0.4192799072265625	0		5.81778369140625	0.16658145141601563	0		-0.451368896484375	5.8428134765625	0		
-0.0025382299423217774	-1.5327100455760957E-4	0		0.48585513305664063	-2.3591640625	0		-1.103347412109375	0.3238902282714844	0		-0.5855054321289063	-2.589443359375	0		1.72173046875	-0.2814400634765625	0		3.349386474609375	-0.4237520751953125	0		4.54432666015625	-0.43572286987304687	0		5.8184912109375	0.16049203491210937	0		-0.4369317626953125	5.85249169921875	0		
0.0015060299634933473	0.00260129189491272	0		0.5417180786132813	-2.3609619140625	0		-1.088274658203125	0.32759848022460936	0		-0.6185910034179688	-2.584281982421875	0		1.733747802734375	-0.2798671875	0		3.38131396484375	-0.4304757995605469	0		4.5563447265625	-0.43331561279296876	0		5.83357958984375	0.18513082885742188	0		-0.42049441528320314	5.86015087890625	0		
0.0015050079822540284	0.002396506071090698	0		0.5216680297851563	-2.3509990234375	0		-1.0832144775390624	0.33141259765625	0		-0.557710205078125	-2.580065673828125	0		1.7337286376953125	-0.28018295288085937	0		3.37231591796875	-0.42780599975585937	0		4.56139697265625	-0.42586331176757813	0		5.8384697265625	0.1615194549560547	0		-0.43620050048828124	5.8521357421875	0		
-0.0025414988994598387	-7.661579847335815E-4	0		0.541386962890625	-2.361442138671875	0		-1.105104736328125	0.3415076293945313	0		-0.6339102172851563	-2.580455078125	0		1.7306524658203124	-0.28447494506835935	0		3.3601484375	-0.440118408203125	0		4.5642080078125	-0.4404105529785156	0		5.830029296875	0.193553466796875	0		-0.44991552734375	5.84210546875	0		
-0.0025724990367889406	-9.680129885673523E-4	0		0.5062991638183594	-2.35032421875	0		-1.098255126953125	0.32731475830078127	0		-0.5662146606445313	-2.5893095703125	0		1.7265599365234374	-0.2887615356445313	0		3.36008544921875	-0.44056488037109376	0		4.56905224609375	-0.4499955139160156	0		5.83559521484375	0.166380615234375	0		-0.40135955810546875	5.85744189453125	0		
-0.0026175129413604737	-0.0011680079698562621	0		0.5409602661132813	-2.3619248046875	0		-1.0991820068359375	0.3362076721191406	0		-0.6254734497070312	-2.590855712890625	0		1.7373681640625	-0.30120587158203127	0		3.385840087890625	-0.45728817749023437	0		4.56695263671875	-0.4525212097167969	0		5.83861376953125	0.21363575744628907	0		-0.4209076232910156	5.86247900390625	0		
0.0013557629585266113	0.0015924359560012817	0		0.4908046875	-2.353643310546875	0		-1.1051610107421874	0.3411578369140625	0		-0.6257330932617188	-2.5910048828125	0		1.74032861328125	-0.2975706481933594	0		3.37490380859375	-0.4426359558105469	0		4.57091162109375	-0.4481170043945312	0		5.85004296875	0.2277874298095703	0		-0.4545692138671875	5.8566689453125	0		
0.0012869470119476318	0.0013973530530929565	0		0.546546630859375	-2.354466064453125	0		-1.1001611328125	0.3449974060058594	0		-0.62398583984375	-2.58917138671875	0		1.740236083984375	-0.2979031677246094	0		3.376568359375	-0.4651174621582031	0		4.559818359375	-0.4475576477050781	0		5.8457744140625	0.24232876586914062	0		-0.42011407470703127	5.86215185546875	0		
0.001208428978919983	0.0012055350542068482	0		0.5333147583007812	-2.351563232421875	0		-1.0672568359375	0.3405431213378906	0		-0.5933446655273438	-2.596641845703125	0		1.734049560546875	-0.3061681823730469	0		3.391441650390625	-0.46673443603515624	0		4.5756083984375	-0.4572781066894531	0		5.85550732421875	0.19769551086425782	0		-0.41973019409179685	5.86199365234375	0		
-0.0029102330207824707	-0.0019400449991226196	0		0.5310245971679688	-2.353771484375	0		-1.116303955078125	0.3419601745605469	0		-0.6326516723632812	-2.5983681640625	0		1.729896484375	-0.31044778442382814	0		3.367362548828125	-0.4629293212890625	0		4.56143310546875	-0.46267080688476564	0		5.86200048828125	0.2292877960205078	0		-0.3731634826660156	5.880345703125	0		
-0.0030043370723724363	-0.0021247429847717283	0		0.5068105163574219	-2.34873828125	0		-1.1053839111328125	0.3407402038574219	0		-0.5979733276367187	-2.6018818359375	0		1.7406497802734375	-0.3228789978027344	0		3.37009423828125	-0.4763963623046875	0		4.57027197265625	-0.46629180908203127	0		5.85674169921875	0.18509521484375	0		-0.4238597412109375	5.87673681640625	0		
